<svg width="728" height="487" viewBox="0 0 728 487" fill="none" xmlns="http://www.w3.org/2000/svg">
<g clip-path="url(#clip0_1_54)">
<path d="M656.972 85.9944H639.697C640.491 87.9421 640.794 90.0553 640.58 92.1479C640.365 94.2405 639.639 96.2482 638.466 97.9941C637.292 99.74 635.708 101.171 633.851 102.16C631.995 103.149 629.924 103.666 627.82 103.667H552C549.897 103.666 547.825 103.149 545.969 102.16C544.113 101.171 542.528 99.74 541.354 97.9941C540.181 96.2482 539.455 94.2405 539.241 92.1479C539.026 90.0553 539.329 87.9421 540.124 85.9943H523.988C516.827 85.9943 509.96 88.839 504.896 93.9024C499.833 98.9659 496.988 105.833 496.988 112.994V455.196C496.988 462.357 499.833 469.224 504.896 474.288C509.96 479.351 516.827 482.196 523.988 482.196H656.972C664.133 482.196 671.001 479.351 676.064 474.288C681.128 469.224 683.972 462.357 683.972 455.196V112.994C683.972 105.833 681.128 98.9659 676.064 93.9024C671.001 88.839 664.133 85.9944 656.972 85.9944Z" fill="#6C63FF"/>
<path d="M657.128 217.046C653.753 207.352 648.305 198.511 641.163 191.14C634.021 183.768 625.356 178.043 615.774 174.364C606.192 170.685 595.923 169.14 585.682 169.838C575.442 170.535 565.477 173.458 556.482 178.402C547.488 183.347 539.68 190.194 533.603 198.466C527.526 206.738 523.327 216.236 521.299 226.298C519.27 236.359 519.46 246.742 521.857 256.723C524.253 266.703 528.798 276.041 535.174 284.085C535.807 284.883 536.466 285.681 537.138 286.453C537.188 286.504 537.226 286.555 537.277 286.605C538.928 288.508 540.683 290.318 542.534 292.027C543.016 292.471 543.522 292.927 544.029 293.357C544.991 294.219 545.98 295.042 547.006 295.828C547.411 296.144 547.804 296.461 548.222 296.765C549.843 297.994 551.528 299.134 553.264 300.223L553.34 300.261C553.833 300.566 554.341 300.87 554.847 301.161C555.759 301.706 556.697 302.225 557.634 302.719L558.229 303.023C559.598 303.733 560.991 304.404 562.423 305.025C562.714 305.151 563.031 305.278 563.322 305.405C563.347 305.417 563.36 305.417 563.385 305.43C564.057 305.709 564.728 305.975 565.412 306.228C567.659 307.086 569.951 307.822 572.278 308.432C578.216 310.015 584.336 310.816 590.482 310.814C592.724 310.814 594.941 310.712 597.133 310.497C602.14 310.035 607.083 309.037 611.878 307.52C611.89 307.52 611.904 307.508 611.916 307.508C614.945 306.543 617.903 305.37 620.771 303.998C620.783 303.986 620.809 303.986 620.822 303.973C621.467 303.669 622.089 303.34 622.722 303.023C622.823 302.972 622.924 302.922 623.026 302.871C623.532 302.605 624.039 302.339 624.546 302.06C625.813 301.364 627.054 300.629 628.283 299.843C628.625 299.641 628.954 299.425 629.296 299.197C629.778 298.881 630.259 298.551 630.728 298.209C631.348 297.779 631.969 297.335 632.577 296.879C632.767 296.74 632.97 296.601 633.16 296.449C645.028 287.44 653.739 274.906 658.045 260.642C662.351 246.377 662.029 231.116 657.127 217.046L657.128 217.046Z" fill="white"/>
<path d="M627.054 293.509C621.053 290.347 614.788 287.71 608.331 285.63L607.508 276.522L574.115 272.924L569.871 284.566L557.887 289.063C557.459 289.226 557.05 289.438 556.671 289.696H556.658C555.99 290.148 555.42 290.732 554.984 291.412C554.549 292.091 554.256 292.852 554.125 293.649C553.997 294.441 554.027 295.25 554.214 296.03L554.847 298.627C555.759 299.172 556.697 299.691 557.634 300.185L558.23 300.489C559.598 301.199 560.991 301.87 562.423 302.491C562.714 302.618 563.031 302.744 563.322 302.871C563.347 302.884 563.36 302.884 563.385 302.896C564.057 303.175 564.728 303.441 565.412 303.694C567.659 304.553 569.951 305.288 572.278 305.899C578.216 307.481 584.336 308.282 590.482 308.28C592.724 308.28 594.941 308.179 597.133 307.963C602.14 307.501 607.084 306.503 611.878 304.987C611.891 304.987 611.904 304.974 611.916 304.974C614.945 304.009 617.903 302.837 620.771 301.465C620.783 301.452 620.809 301.452 620.822 301.44C621.468 301.135 622.089 300.806 622.722 300.49C622.823 300.439 622.924 300.388 623.026 300.337C623.532 300.071 624.039 299.805 624.546 299.527C625.813 298.83 627.054 298.095 628.283 297.31C628.625 297.107 628.954 296.892 629.297 296.664C629.778 296.347 630.259 296.018 630.728 295.676C629.55 294.916 628.321 294.194 627.054 293.509Z" fill="#E4E4E4"/>
<path d="M564.386 299.121L562.296 289.684H556.836C556.781 289.685 556.726 289.689 556.671 289.696H556.658C554.696 289.862 552.807 290.516 551.161 291.597C550.044 292.309 549.052 293.199 548.222 294.232C549.843 295.46 551.528 296.601 553.264 297.69L553.34 297.728C553.834 298.032 554.341 298.336 554.847 298.627C555.759 299.172 556.697 299.692 557.634 300.186L558.23 300.49C559.598 301.199 560.991 301.87 562.423 302.491C562.714 302.618 563.031 302.744 563.322 302.871C563.347 302.884 563.36 302.884 563.385 302.896C564.057 303.175 564.728 303.441 565.412 303.695L564.386 299.121Z" fill="#E4E4E4"/>
<path d="M589.501 267.166C602.783 267.166 613.55 256.398 613.55 243.116C613.55 229.834 602.783 219.067 589.501 219.067C576.219 219.067 565.451 229.834 565.451 243.116C565.451 256.398 576.219 267.166 589.501 267.166Z" fill="#A0616A"/>
<path d="M573.354 231.402C575.844 234.349 580.057 235.18 583.943 235.521C591.836 236.213 603.314 235.09 611.027 233.309C611.578 238.645 610.077 244.398 613.22 248.788C614.693 243.474 615.55 238.008 615.773 232.498C616.007 230.134 615.699 227.748 614.87 225.521C614.427 224.405 613.68 223.436 612.714 222.724C611.748 222.012 610.601 221.584 609.404 221.491C611.196 220.132 613.295 219.235 615.515 218.879L607.879 215.041L609.84 213.028L596.015 212.182L600.019 209.638C593.992 208.81 587.895 208.618 581.828 209.064C579.011 209.272 576.066 209.668 573.783 211.3C571.5 212.933 570.181 216.177 571.599 218.573C569.824 218.865 568.154 219.604 566.746 220.722C565.337 221.839 564.237 223.298 563.551 224.959C562.682 227.6 562.472 230.413 562.94 233.154C563.46 237.551 564.482 241.874 565.985 246.038L573.354 231.402Z" fill="#2F2E41"/>
<path d="M657.128 217.046C653.753 207.352 648.305 198.511 641.163 191.14C634.021 183.768 625.356 178.043 615.774 174.364C606.192 170.685 595.923 169.14 585.682 169.838C575.442 170.535 565.477 173.458 556.482 178.402C547.488 183.347 539.68 190.194 533.603 198.466C527.526 206.738 523.327 216.236 521.299 226.298C519.27 236.359 519.46 246.742 521.857 256.723C524.253 266.703 528.798 276.041 535.174 284.085C535.807 284.883 536.466 285.681 537.138 286.453C537.188 286.504 537.226 286.555 537.277 286.605C538.928 288.508 540.683 290.318 542.534 292.027C543.016 292.471 543.522 292.927 544.029 293.357C544.991 294.219 545.98 295.042 547.006 295.828C547.411 296.144 547.804 296.461 548.222 296.765C549.843 297.994 551.528 299.134 553.264 300.223L553.34 300.261C553.833 300.566 554.341 300.87 554.847 301.161C555.759 301.706 556.697 302.225 557.634 302.719L558.229 303.023C559.598 303.733 560.991 304.404 562.423 305.025C562.714 305.151 563.031 305.278 563.322 305.405C563.347 305.417 563.36 305.417 563.385 305.43C564.057 305.709 564.728 305.975 565.412 306.228C567.659 307.086 569.951 307.822 572.278 308.432C578.216 310.015 584.336 310.816 590.482 310.814C592.724 310.814 594.941 310.712 597.133 310.497C602.14 310.035 607.083 309.037 611.878 307.52C611.89 307.52 611.904 307.508 611.916 307.508C614.945 306.543 617.903 305.37 620.771 303.998C620.783 303.986 620.809 303.986 620.822 303.973C621.467 303.669 622.089 303.34 622.722 303.023C622.823 302.972 622.924 302.922 623.026 302.871C623.532 302.605 624.039 302.339 624.546 302.06C625.813 301.364 627.054 300.629 628.283 299.843C628.625 299.641 628.954 299.425 629.296 299.197C629.778 298.881 630.259 298.551 630.728 298.209C631.348 297.779 631.969 297.335 632.577 296.879C632.767 296.74 632.97 296.601 633.16 296.449C645.028 287.44 653.739 274.906 658.045 260.642C662.351 246.377 662.029 231.116 657.127 217.046L657.128 217.046ZM630.829 293.37C630.411 293.699 629.981 294.016 629.549 294.308C629.131 294.624 628.714 294.928 628.283 295.207C627.915 295.473 627.548 295.726 627.168 295.967L627.054 296.043C626.775 296.233 626.497 296.41 626.218 296.588C625.166 297.246 624.102 297.88 623.026 298.488C622.912 298.551 622.797 298.615 622.684 298.678C622.202 298.944 621.721 299.197 621.24 299.451C621.176 299.489 621.1 299.514 621.037 299.552L620.961 299.59C620.353 299.907 619.732 300.211 619.112 300.502C616.716 301.656 614.249 302.654 611.726 303.492C611.396 303.606 611.067 303.72 610.738 303.821C606.2 305.264 601.52 306.216 596.778 306.659C594.7 306.849 592.597 306.95 590.482 306.95C584.669 306.962 578.88 306.204 573.267 304.695C570.386 303.943 567.562 302.986 564.817 301.832C564.677 301.769 564.525 301.718 564.386 301.655C564.234 301.592 564.095 301.541 563.956 301.477C563.803 301.414 563.664 301.351 563.512 301.275C562.321 300.755 561.143 300.185 559.991 299.59L559.433 299.299C558.027 298.564 556.646 297.779 555.303 296.942C554.911 296.702 554.505 296.448 554.125 296.182C554.024 296.119 553.935 296.056 553.834 295.992C552.934 295.397 552.035 294.776 551.161 294.13C550.566 293.687 549.97 293.243 549.388 292.787C548.412 292.053 547.474 291.267 546.563 290.456C546.081 290.051 545.613 289.608 545.157 289.19C543.36 287.531 541.66 285.772 540.064 283.92C539.532 283.312 539.013 282.704 538.518 282.07C538.406 281.945 538.3 281.814 538.202 281.678C529.971 271.291 525.02 258.689 523.981 245.478C522.942 232.267 525.861 219.045 532.366 207.5C538.872 195.954 548.668 186.608 560.507 180.653C572.346 174.698 585.69 172.404 598.838 174.063C611.985 175.723 624.341 181.261 634.328 189.971C644.316 198.682 651.483 210.169 654.915 222.969C658.347 235.769 657.889 249.301 653.6 261.84C649.31 274.378 641.383 285.355 630.829 293.37H630.829Z" fill="#959595"/>
<path d="M639.31 366.14H541.857C538.758 366.137 535.786 364.903 533.595 362.711C531.405 360.518 530.174 357.545 530.174 354.445C530.174 351.346 531.405 348.373 533.595 346.18C535.786 343.987 538.758 342.754 541.857 342.751H639.31C642.412 342.751 645.386 343.983 647.579 346.176C649.772 348.369 651.005 351.344 651.005 354.445C651.005 357.547 649.772 360.521 647.579 362.714C645.386 364.907 642.412 366.14 639.31 366.14V366.14Z" fill="#7C7C7C"/>
<path d="M639.31 402.197H541.857C538.758 402.194 535.786 400.961 533.595 398.768C531.405 396.575 530.174 393.602 530.174 390.503C530.174 387.403 531.405 384.43 533.595 382.238C535.786 380.045 538.758 378.811 541.857 378.809H639.31C642.412 378.809 645.386 380.041 647.579 382.234C649.772 384.427 651.005 387.401 651.005 390.503C651.005 393.604 649.772 396.579 647.579 398.772C645.386 400.965 642.412 402.197 639.31 402.197V402.197Z" fill="#7C7C7C"/>
<path d="M223.768 87.9944H206.492C207.287 89.9421 207.59 92.0553 207.375 94.1479C207.161 96.2405 206.435 98.2482 205.261 99.9941C204.088 101.74 202.503 103.171 200.647 104.16C198.79 105.149 196.719 105.666 194.616 105.667H118.796C116.692 105.666 114.621 105.149 112.764 104.16C110.908 103.171 109.323 101.74 108.15 99.9941C106.977 98.2482 106.251 96.2405 106.036 94.1479C105.821 92.0553 106.125 89.9421 106.919 87.9943H90.7835C83.6227 87.9943 76.7551 90.839 71.6916 95.9024C66.6281 100.966 63.7835 107.833 63.7835 114.994V457.196C63.7835 464.357 66.6281 471.224 71.6916 476.288C76.7551 481.351 83.6227 484.196 90.7835 484.196H223.768C230.929 484.196 237.796 481.351 242.86 476.288C247.923 471.224 250.768 464.357 250.768 457.196V457.196V114.994C250.768 107.833 247.923 100.966 242.86 95.9024C237.796 90.839 230.929 87.9944 223.768 87.9944V87.9944Z" fill="#292929"/>
<path d="M223.923 219.046C220.549 209.352 215.1 200.512 207.958 193.14C200.816 185.768 192.152 180.043 182.57 176.364C172.988 172.685 162.718 171.14 152.478 171.838C142.237 172.535 132.272 175.458 123.278 180.402C114.283 185.347 106.475 192.194 100.398 200.466C94.3218 208.738 90.1227 218.236 88.094 228.298C86.0653 238.359 86.2558 248.742 88.6522 258.723C91.0486 268.703 95.5932 278.041 101.969 286.085C102.603 286.883 103.261 287.681 103.933 288.453C103.984 288.504 104.022 288.555 104.072 288.605C105.723 290.508 107.478 292.318 109.329 294.027C109.811 294.471 110.318 294.927 110.824 295.357C111.787 296.219 112.775 297.042 113.801 297.828C114.206 298.144 114.599 298.461 115.017 298.765C116.639 299.994 118.324 301.134 120.059 302.223L120.135 302.261C120.629 302.566 121.136 302.87 121.643 303.161C122.554 303.706 123.492 304.225 124.429 304.719L125.025 305.023C126.393 305.733 127.787 306.404 129.218 307.025C129.509 307.151 129.826 307.278 130.117 307.405C130.143 307.417 130.155 307.417 130.18 307.43C130.852 307.709 131.523 307.975 132.207 308.228C134.455 309.086 136.747 309.822 139.073 310.432C145.012 312.015 151.132 312.816 157.277 312.814C159.52 312.814 161.736 312.712 163.928 312.497C168.935 312.035 173.879 311.037 178.674 309.52C178.686 309.52 178.699 309.508 178.711 309.508C181.74 308.543 184.699 307.37 187.566 305.998C187.579 305.986 187.604 305.986 187.617 305.973C188.263 305.669 188.884 305.34 189.517 305.023C189.619 304.972 189.72 304.922 189.821 304.871C190.328 304.605 190.835 304.339 191.341 304.06C192.608 303.364 193.85 302.629 195.078 301.843C195.42 301.641 195.75 301.425 196.092 301.197C196.573 300.881 197.054 300.551 197.523 300.209C198.144 299.779 198.765 299.335 199.373 298.879C199.563 298.74 199.765 298.601 199.955 298.449C211.823 289.44 220.535 276.906 224.84 262.642C229.146 248.377 228.825 233.116 223.923 219.046Z" fill="#7C7C7C"/>
<path d="M206.106 368.14H108.653C105.551 368.14 102.577 366.907 100.384 364.714C98.1906 362.521 96.9585 359.547 96.9585 356.445C96.9585 353.344 98.1906 350.369 100.384 348.176C102.577 345.983 105.551 344.751 108.653 344.751H206.106C209.205 344.754 212.177 345.987 214.368 348.18C216.559 350.373 217.789 353.346 217.789 356.445C217.789 359.545 216.559 362.518 214.368 364.711C212.177 366.903 209.205 368.137 206.106 368.14V368.14Z" fill="#E4E4E4"/>
<path d="M206.106 404.197H108.653C107.116 404.199 105.594 403.897 104.174 403.31C102.754 402.723 101.464 401.862 100.377 400.776C99.2896 399.69 98.4273 398.4 97.8389 396.981C97.2506 395.561 96.9477 394.039 96.9477 392.503C96.9477 390.966 97.2506 389.445 97.8389 388.025C98.4273 386.606 99.2896 385.316 100.377 384.23C101.464 383.144 102.754 382.283 104.174 381.696C105.594 381.109 107.116 380.807 108.653 380.809H206.106C209.207 380.809 212.182 382.041 214.375 384.234C216.568 386.427 217.8 389.401 217.8 392.503C217.8 395.604 216.568 398.579 214.375 400.772C212.182 402.965 209.207 404.197 206.106 404.197Z" fill="#E4E4E4"/>
<path d="M132.41 258.755L136.509 272.954L188.889 272.029L188.43 246.014C188.066 225.422 173.513 207.662 152.921 208.025C132.33 208.388 119.237 225.797 119.6 246.389L122.591 273.199L131.131 273.048L132.41 258.755Z" fill="#2F2E41"/>
<path d="M155.262 268.683C168.242 268.683 178.764 258.161 178.764 245.182C178.764 232.203 168.242 221.681 155.262 221.681C142.283 221.681 131.761 232.203 131.761 245.182C131.761 258.161 142.283 268.683 155.262 268.683Z" fill="#FFB6B6"/>
<path d="M202.041 281.831L201.509 291.716C190.229 303.449 174.844 310.355 158.581 310.984C142.319 311.614 126.445 305.919 114.292 295.095C113.749 294.617 113.216 294.117 112.695 293.607C115.954 290.37 124.948 282.375 134.931 281.636L179.946 278.801C179.946 278.801 197.001 276.802 202.041 281.831Z" fill="#E4E4E4"/>
<path d="M180.989 228.68C180.958 226.88 180.395 225.13 179.37 223.65C179.262 223.498 179.153 223.357 179.045 223.216C178.174 222.105 177.058 221.21 175.784 220.601C174.51 219.992 173.113 219.686 171.701 219.707L154.81 220.011L137.929 220.305C135.511 220.353 133.21 221.358 131.531 223.098C129.851 224.839 128.929 227.174 128.967 229.592L132.987 237.685L135.3 242.334L135.681 242.117C150.291 233.905 156.265 233.796 175.601 241.433L175.992 241.585L177.524 237.663L181 228.767L180.989 228.68Z" fill="#2F2E41"/>
<path d="M207.374 288.481C206.016 290.219 204.79 290.188 203.258 291.774C199.391 295.804 193.22 299.255 188.397 302.134L187.344 283.254L202.041 281.831C204.487 283.417 206.357 285.749 207.374 288.481V288.481Z" fill="#E4E4E4"/>
<path d="M223.923 219.046C220.549 209.352 215.1 200.512 207.958 193.14C200.816 185.768 192.152 180.043 182.57 176.364C172.988 172.685 162.718 171.14 152.478 171.838C142.237 172.535 132.272 175.458 123.278 180.402C114.283 185.347 106.475 192.194 100.398 200.466C94.3218 208.738 90.1227 218.236 88.094 228.298C86.0653 238.359 86.2558 248.742 88.6522 258.723C91.0486 268.703 95.5932 278.041 101.969 286.085C102.603 286.883 103.261 287.681 103.933 288.453C103.984 288.504 104.022 288.555 104.072 288.605C105.723 290.508 107.478 292.318 109.329 294.027C109.811 294.471 110.318 294.927 110.824 295.357C111.787 296.219 112.775 297.042 113.801 297.828C114.206 298.144 114.599 298.461 115.017 298.765C116.639 299.994 118.324 301.134 120.059 302.223L120.135 302.261C120.629 302.566 121.136 302.87 121.643 303.161C122.554 303.706 123.492 304.225 124.429 304.719L125.025 305.023C126.393 305.733 127.787 306.404 129.218 307.025C129.509 307.151 129.826 307.278 130.117 307.405C130.143 307.417 130.155 307.417 130.18 307.43C130.852 307.709 131.523 307.975 132.207 308.228C134.455 309.086 136.747 309.822 139.073 310.432C145.012 312.015 151.132 312.816 157.277 312.814C159.52 312.814 161.736 312.712 163.928 312.497C168.935 312.035 173.879 311.037 178.674 309.52C178.686 309.52 178.699 309.508 178.711 309.508C181.74 308.543 184.699 307.37 187.566 305.998C187.579 305.986 187.604 305.986 187.617 305.973C188.263 305.669 188.884 305.34 189.517 305.023C189.619 304.972 189.72 304.922 189.821 304.871C190.328 304.605 190.835 304.339 191.341 304.06C192.608 303.364 193.85 302.629 195.078 301.843C195.42 301.641 195.75 301.425 196.092 301.197C196.573 300.881 197.054 300.551 197.523 300.209C198.144 299.779 198.765 299.335 199.373 298.879C199.563 298.74 199.765 298.601 199.955 298.449C211.823 289.44 220.535 276.906 224.84 262.642C229.146 248.377 228.825 233.116 223.923 219.046L223.923 219.046ZM197.625 295.37C197.207 295.699 196.776 296.016 196.345 296.308C195.927 296.624 195.509 296.928 195.078 297.207C194.711 297.473 194.343 297.726 193.963 297.967L193.85 298.043C193.571 298.233 193.292 298.41 193.013 298.588C191.962 299.246 190.898 299.88 189.821 300.488C189.707 300.551 189.593 300.615 189.479 300.678C188.998 300.944 188.517 301.197 188.035 301.451C187.972 301.489 187.896 301.514 187.832 301.552L187.756 301.59C187.148 301.907 186.527 302.211 185.907 302.502C183.512 303.656 181.045 304.654 178.521 305.492C178.192 305.606 177.863 305.72 177.534 305.821C172.995 307.264 168.315 308.216 163.574 308.659C161.496 308.849 159.393 308.95 157.277 308.95C151.464 308.962 145.676 308.204 140.062 306.695C137.181 305.943 134.357 304.986 131.613 303.832C131.473 303.769 131.321 303.718 131.181 303.655C131.03 303.592 130.89 303.541 130.751 303.477C130.599 303.414 130.46 303.351 130.307 303.275C129.117 302.755 127.938 302.185 126.786 301.59L126.229 301.299C124.822 300.564 123.442 299.779 122.099 298.942C121.706 298.702 121.301 298.448 120.92 298.182C120.819 298.119 120.73 298.056 120.629 297.992C119.73 297.397 118.83 296.776 117.956 296.13C117.361 295.687 116.766 295.243 116.183 294.787C115.207 294.053 114.27 293.267 113.358 292.456C112.877 292.051 112.408 291.608 111.952 291.19C110.156 289.531 108.455 287.772 106.859 285.92C106.327 285.312 105.808 284.704 105.314 284.07C105.201 283.945 105.096 283.814 104.997 283.678C96.7662 273.291 91.8155 260.689 90.7762 247.478C89.7369 234.267 92.6561 221.045 99.1615 209.5C105.667 197.954 115.464 188.608 127.302 182.653C139.141 176.698 152.485 174.404 165.633 176.063C178.781 177.723 191.136 183.261 201.124 191.971C211.111 200.682 218.278 212.169 221.71 224.969C225.143 237.769 224.685 251.301 220.395 263.84C216.105 276.378 208.178 287.355 197.625 295.37V295.37Z" fill="#E4E4E4"/>
<path d="M432.834 277.358C433.825 277.557 434.848 277.536 435.831 277.298C436.813 277.059 437.731 276.608 438.52 275.975C439.31 275.343 439.95 274.546 440.398 273.64C440.846 272.733 441.089 271.739 441.111 270.729L493.366 221.546L481.608 212.167L433.852 263.585C432.152 263.661 430.538 264.357 429.317 265.543C428.095 266.729 427.351 268.322 427.226 270.019C427.1 271.717 427.602 273.401 428.636 274.754C429.669 276.106 431.163 277.033 432.834 277.358H432.834Z" fill="#FFB7B7"/>
<path d="M485.961 229.496L475.795 217.582C475.506 217.243 475.293 216.845 475.171 216.417C475.049 215.988 475.021 215.538 475.089 215.098C475.157 214.657 475.319 214.237 475.564 213.864C475.808 213.492 476.131 213.177 476.508 212.941L489.743 204.656C491.486 203.185 493.741 202.465 496.013 202.655C498.286 202.844 500.39 203.927 501.865 205.666C503.34 207.405 504.066 209.658 503.882 211.931C503.698 214.204 502.62 216.311 500.885 217.791L490.657 229.521C490.364 229.857 490.002 230.126 489.596 230.309C489.189 230.492 488.749 230.586 488.303 230.584C487.857 230.581 487.417 230.483 487.013 230.295C486.609 230.107 486.25 229.835 485.961 229.496V229.496Z" fill="#BC79FF"/>
<path d="M458.624 472.188L445.848 472.187L439.77 422.908L458.626 422.909L458.624 472.188Z" fill="#FFB7B7"/>
<path d="M461.882 484.572L420.687 484.571V484.05C420.687 479.797 422.376 475.719 425.383 472.712C428.39 469.705 432.468 468.016 436.721 468.015H436.722L461.883 468.016L461.882 484.572Z" fill="#2F2E41"/>
<path d="M560.751 472.188L547.975 472.187L541.897 422.908L560.753 422.909L560.751 472.188Z" fill="#FFB7B7"/>
<path d="M564.009 484.572L522.813 484.571V484.05C522.814 479.797 524.503 475.719 527.51 472.712C530.517 469.705 534.595 468.016 538.848 468.015H538.849L564.01 468.016L564.009 484.572Z" fill="#2F2E41"/>
<path d="M526.385 255.618L539.263 208.037L522.556 198.646H499.236L490.166 208.35C490.166 208.35 475.012 218.894 478.68 230.575L484.597 257.183L475.547 299.442L429.951 362.674L419.158 424.785L461.646 435.923L507.59 345.457L529.865 445.627L571.306 443.543L557.026 322.087C557.026 322.087 552.956 285.087 531.618 261.985L526.385 255.618Z" fill="#2F2E41"/>
<path d="M552.981 297.717C553.699 297.005 554.252 296.144 554.602 295.196C554.952 294.247 555.089 293.233 555.005 292.226C554.92 291.218 554.616 290.242 554.113 289.364C553.61 288.487 552.921 287.731 552.095 287.149L542.102 219.738L527.761 224.266L542.117 289.191C541.231 290.644 540.909 292.372 541.213 294.047C541.516 295.722 542.423 297.228 543.762 298.279C545.101 299.33 546.779 299.853 548.478 299.749C550.177 299.646 551.779 298.922 552.981 297.717V297.717Z" fill="#FFB7B7"/>
<path d="M544.572 230.317L529.013 232.111C528.571 232.162 528.122 232.117 527.699 231.979C527.275 231.841 526.886 231.614 526.558 231.312C526.23 231.01 525.971 230.641 525.799 230.23C525.626 229.819 525.545 229.376 525.559 228.931L526.063 213.325C525.814 211.058 526.474 208.785 527.899 207.005C529.323 205.224 531.396 204.081 533.662 203.826C535.928 203.572 538.203 204.227 539.987 205.647C541.771 207.067 542.919 209.137 543.179 211.402L547.212 226.434C547.327 226.865 547.349 227.315 547.274 227.754C547.2 228.194 547.032 228.612 546.781 228.98C546.531 229.349 546.204 229.659 545.822 229.89C545.441 230.12 545.015 230.266 544.572 230.317Z" fill="#BC79FF"/>
<path d="M484.817 185.115V165.068C484.822 157.946 487.654 151.117 492.691 146.083C497.729 141.048 504.559 138.22 511.681 138.22C518.803 138.22 525.633 141.048 530.671 146.083C535.708 151.117 538.541 157.946 538.545 165.068V185.115C538.544 186.072 538.163 186.989 537.487 187.666C536.81 188.342 535.893 188.723 534.936 188.724H488.426C487.469 188.723 486.552 188.342 485.875 187.666C485.199 186.989 484.818 186.072 484.817 185.115Z" fill="#2F2E41"/>
<path d="M506.161 188.257C517.039 188.257 525.857 179.439 525.857 168.562C525.857 157.684 517.039 148.866 506.161 148.866C495.283 148.866 486.465 157.684 486.465 168.562C486.465 179.439 495.283 188.257 506.161 188.257Z" fill="#FFB7B7"/>
<path d="M478.462 166.672C478.468 161.038 480.709 155.636 484.693 151.652C488.677 147.668 494.078 145.428 499.713 145.421H503.722C509.356 145.428 514.758 147.668 518.742 151.652C522.725 155.636 524.966 161.038 524.973 166.672V167.073H516.499L513.609 158.98L513.031 167.073H508.652L507.194 162.989L506.902 167.073H478.462L478.462 166.672Z" fill="#2F2E41"/>
<path d="M504.223 190.978C503.825 190.44 503.587 189.8 503.537 189.132C503.487 188.464 503.627 187.796 503.94 187.204C508.189 179.122 514.138 164.189 506.242 154.98L505.674 154.318H528.598V188.736L507.773 192.41C507.563 192.447 507.349 192.466 507.135 192.466C506.566 192.466 506.006 192.331 505.5 192.073C504.993 191.814 504.556 191.439 504.223 190.978V190.978Z" fill="#2F2E41"/>
<path d="M411.662 484.362H250.094C240.999 484.351 232.28 480.734 225.849 474.303C219.418 467.872 215.801 459.153 215.791 450.058V34.3037C215.801 25.209 219.418 16.4897 225.849 10.0588C232.28 3.62779 240.999 0.0103331 250.094 0H271.93L271.087 2.06641C270.214 4.20504 269.881 6.52541 270.117 8.82312C270.352 11.1208 271.15 13.3253 272.438 15.2424C273.726 17.1595 275.466 18.7304 277.505 19.8166C279.543 20.9028 281.817 21.471 284.127 21.4712H376.243C378.553 21.471 380.827 20.9027 382.866 19.8166C384.904 18.7304 386.644 17.1596 387.932 15.2425C389.221 13.3254 390.018 11.1209 390.254 8.82324C390.489 6.52553 390.156 4.20513 389.284 2.06641L388.441 0H411.662C420.757 0.0103143 429.476 3.62776 435.907 10.0587C442.338 16.4897 445.956 25.209 445.966 34.3037V450.058C445.956 459.153 442.338 467.872 435.907 474.303C429.476 480.734 420.757 484.351 411.662 484.362Z" fill="white"/>
<path d="M411.662 484.362H250.094C240.999 484.351 232.28 480.734 225.849 474.303C219.418 467.872 215.801 459.153 215.791 450.058V34.3037C215.801 25.209 219.418 16.4897 225.849 10.0588C232.28 3.62779 240.999 0.0103331 250.094 0H271.93L271.087 2.06641C270.214 4.20504 269.881 6.52541 270.117 8.82312C270.352 11.1208 271.15 13.3253 272.438 15.2424C273.726 17.1595 275.466 18.7304 277.505 19.8166C279.543 20.9028 281.817 21.471 284.127 21.4712H376.243C378.553 21.471 380.827 20.9027 382.866 19.8166C384.904 18.7304 386.644 17.1596 387.932 15.2425C389.221 13.3254 390.018 11.1209 390.254 8.82324C390.489 6.52553 390.156 4.20513 389.284 2.06641L388.441 0H411.662C420.757 0.0103143 429.476 3.62776 435.907 10.0587C442.338 16.4897 445.956 25.209 445.966 34.3037V450.058C445.956 459.153 442.338 467.872 435.907 474.303C429.476 480.734 420.757 484.351 411.662 484.362ZM250.094 3C241.794 3.00947 233.838 6.31059 227.969 12.1791C222.101 18.0477 218.8 26.0044 218.791 34.3037V450.058C218.8 458.357 222.101 466.314 227.969 472.183C233.838 478.051 241.794 481.352 250.094 481.362H411.662C419.961 481.352 427.918 478.051 433.787 472.183C439.655 466.314 442.956 458.357 442.966 450.058V34.3037C442.956 26.0044 439.655 18.0476 433.787 12.1791C427.918 6.31054 419.961 3.00945 411.662 3H392.758C393.429 5.52992 393.511 8.18028 392.995 10.7466C392.48 13.3129 391.382 15.7265 389.786 17.8013C388.191 19.8761 386.14 21.5565 383.791 22.713C381.443 23.8694 378.861 24.4709 376.243 24.4712H284.127C281.51 24.4702 278.928 23.8682 276.58 22.7115C274.232 21.5548 272.182 19.8744 270.586 17.7997C268.991 15.7251 267.893 13.3117 267.378 10.7457C266.863 8.17971 266.944 5.52967 267.615 2.99997L250.094 3Z" fill="#3F3D56"/>
<path d="M416.376 147.072C412.277 135.294 405.657 124.553 396.98 115.597C388.303 106.641 377.776 99.6852 366.135 95.2153C354.493 90.7453 342.016 88.8686 329.575 89.716C317.133 90.5634 305.026 94.1145 294.098 100.122C283.17 106.129 273.684 114.448 266.301 124.498C258.918 134.548 253.817 146.087 251.352 158.312C248.887 170.536 249.119 183.151 252.03 195.277C254.942 207.402 260.463 218.747 268.209 228.519C268.979 229.489 269.779 230.459 270.595 231.398C270.656 231.459 270.702 231.521 270.764 231.582C272.77 233.894 274.903 236.093 277.152 238.169C277.736 238.708 278.352 239.262 278.967 239.785C280.137 240.832 281.337 241.832 282.584 242.787C285.018 244.705 287.557 246.488 290.187 248.127L290.28 248.173C291.988 249.235 293.727 250.22 295.497 251.159L296.22 251.529C297.883 252.39 299.576 253.206 301.315 253.96C301.669 254.114 302.053 254.268 302.407 254.422C302.438 254.437 302.454 254.437 302.485 254.453C305.999 255.914 309.609 257.133 313.289 258.1C320.504 260.023 327.938 260.996 335.405 260.994C338.129 260.994 340.823 260.871 343.485 260.609C349.569 260.048 355.575 258.835 361.4 256.992C361.416 256.992 361.431 256.977 361.446 256.977C365.126 255.805 368.72 254.38 372.204 252.714C372.219 252.698 372.251 252.698 372.266 252.683C373.051 252.314 373.805 251.913 374.575 251.529C374.698 251.467 374.821 251.405 374.944 251.344C375.56 251.021 376.175 250.697 376.791 250.359C378.33 249.512 379.838 248.62 381.331 247.666C381.747 247.419 382.147 247.158 382.562 246.881C383.917 245.988 385.256 245.034 386.548 244.064C386.78 243.895 387.026 243.726 387.257 243.541C401.676 232.596 412.259 217.367 417.49 200.037C422.721 182.707 422.331 164.166 416.376 147.072H416.376Z" fill="white"/>
<path d="M363.699 210.596C370.796 210.596 376.549 204.843 376.549 197.746C376.549 190.65 370.796 184.897 363.699 184.897C356.602 184.897 350.849 190.65 350.849 197.746C350.849 204.843 356.602 210.596 363.699 210.596Z" fill="#2F2E41"/>
<path d="M367.279 185.251C369.503 185.251 371.689 185.828 373.623 186.926C375.557 188.024 377.173 189.605 378.313 191.514C379.453 193.424 380.078 195.597 380.127 197.82C380.176 200.044 379.647 202.242 378.591 204.2C379.705 202.806 380.516 201.195 380.973 199.47C381.43 197.746 381.523 195.945 381.245 194.182C380.968 192.42 380.326 190.735 379.362 189.234C378.397 187.733 377.13 186.449 375.642 185.465C374.154 184.481 372.477 183.817 370.718 183.517C368.959 183.217 367.157 183.286 365.427 183.72C363.696 184.155 362.075 184.945 360.667 186.04C359.259 187.136 358.094 188.513 357.247 190.083C358.449 188.575 359.975 187.357 361.712 186.52C363.449 185.684 365.352 185.25 367.281 185.251H367.279Z" fill="#2F2E41"/>
<path d="M339.687 197.719C360.534 197.719 377.434 180.819 377.434 159.971C377.434 139.124 360.534 122.224 339.687 122.224C318.839 122.224 301.939 139.124 301.939 159.971C301.939 180.819 318.839 197.719 339.687 197.719Z" fill="#2F2E41"/>
<path d="M310.061 136.551C316.565 129.236 325.657 124.735 335.417 123.996C345.178 123.258 354.843 126.34 362.374 132.593C362.066 132.299 361.758 132.003 361.44 131.719C353.982 125.046 344.18 121.609 334.188 122.161C324.197 122.713 314.833 127.21 308.156 134.664C301.479 142.117 298.035 151.917 298.58 161.909C299.126 171.901 303.617 181.267 311.066 187.949C311.137 188.013 311.209 188.077 311.281 188.141C311.601 188.426 311.931 188.695 312.259 188.967C305.167 182.221 300.974 172.983 300.564 163.203C300.154 153.424 303.56 143.867 310.062 136.551L310.061 136.551Z" fill="#2F2E41"/>
<path d="M339.366 197.398C352.793 197.398 363.678 186.514 363.678 173.087C363.678 159.661 352.793 148.776 339.366 148.776C325.94 148.776 315.055 159.661 315.055 173.087C315.055 186.514 325.94 197.398 339.366 197.398Z" fill="#A0616A"/>
<path d="M382.87 236.43V244.587C381.377 245.542 379.869 246.434 378.33 247.281C377.714 247.619 377.099 247.943 376.484 248.266C376.36 248.327 376.237 248.389 376.114 248.45C375.344 248.835 374.59 249.235 373.805 249.605C373.79 249.62 373.759 249.62 373.744 249.635C370.26 251.302 366.665 252.727 362.985 253.899C362.97 253.899 362.955 253.914 362.939 253.914C357.114 255.757 351.108 256.969 345.024 257.531C342.362 257.793 339.668 257.916 336.944 257.916C329.478 257.918 322.043 256.945 314.828 255.022C311.148 254.055 307.538 252.836 304.024 251.375C303.993 251.359 303.977 251.359 303.946 251.344C303.592 251.19 303.208 251.036 302.854 250.882C301.115 250.128 299.422 249.312 297.759 248.45L297.036 248.081C295.266 247.142 293.527 246.157 291.819 245.095L291.726 245.049C289.096 243.41 286.558 241.627 284.123 239.709C282.877 238.754 281.676 237.754 280.506 236.707C279.891 236.184 279.275 235.63 278.691 235.091C276.442 233.015 274.31 230.815 272.303 228.504C272.569 226.901 272.96 225.321 273.473 223.779L273.488 223.764C273.58 223.501 273.688 223.244 273.811 222.994C273.896 222.773 273.994 222.557 274.103 222.348C276.858 217.192 281.845 215.914 288.033 215.637C291.526 215.483 295.389 215.653 299.468 215.607C301.623 215.591 303.854 215.514 306.086 215.314C320.168 214.037 317.614 205.726 318.244 201.247C318.876 196.907 322.785 200.662 323.047 200.908L323.061 200.924C331.031 204.653 339.848 206.199 348.61 205.402C350.118 205.218 351.627 205.11 353.135 205.064C357.106 205.018 356.244 206.157 354.875 207.096C354.21 207.533 353.516 207.924 352.797 208.265C352.797 208.265 352.166 212.113 351.519 217.869C350.904 223.379 370.311 225.287 374.113 226.488H374.128C376.298 227.286 378.235 228.613 379.761 230.35C381.288 232.086 382.357 234.176 382.87 236.43V236.43Z" fill="#392B75"/>
<path d="M318.574 142.698V167.016H324.203L331.368 159.339L330.409 167.016H355.296L353.757 159.339L356.835 167.016H360.803V142.698H318.574Z" fill="#2F2E41"/>
<path d="M314.735 171.488C315.795 171.488 316.654 169.913 316.654 167.97C316.654 166.027 315.795 164.452 314.735 164.452C313.675 164.452 312.816 166.027 312.816 167.97C312.816 169.913 313.675 171.488 314.735 171.488Z" fill="#A0616A"/>
<path d="M363.999 171.488C365.059 171.488 365.919 169.913 365.919 167.97C365.919 166.027 365.059 164.452 363.999 164.452C362.939 164.452 362.08 166.027 362.08 167.97C362.08 169.913 362.939 171.488 363.999 171.488Z" fill="#A0616A"/>
<path d="M416.376 147.072C412.277 135.294 405.657 124.553 396.98 115.597C388.303 106.641 377.776 99.6852 366.135 95.2153C354.493 90.7453 342.016 88.8686 329.575 89.716C317.133 90.5634 305.026 94.1145 294.098 100.122C283.17 106.129 273.684 114.448 266.301 124.498C258.918 134.548 253.817 146.087 251.352 158.312C248.887 170.536 249.119 183.151 252.03 195.277C254.942 207.402 260.463 218.747 268.209 228.519C268.979 229.489 269.779 230.459 270.595 231.398C270.656 231.459 270.702 231.521 270.764 231.582C272.77 233.894 274.903 236.093 277.152 238.169C277.736 238.708 278.352 239.262 278.967 239.785C280.137 240.832 281.337 241.832 282.584 242.787C285.018 244.705 287.557 246.488 290.187 248.127L290.28 248.173C291.988 249.235 293.727 250.22 295.497 251.159L296.22 251.529C297.883 252.39 299.576 253.206 301.315 253.96C301.669 254.114 302.053 254.268 302.407 254.422C302.438 254.437 302.454 254.437 302.485 254.453C305.999 255.914 309.609 257.133 313.289 258.1C320.504 260.023 327.938 260.996 335.405 260.994C338.129 260.994 340.823 260.871 343.485 260.609C349.569 260.048 355.575 258.835 361.4 256.992C361.416 256.992 361.431 256.977 361.446 256.977C365.126 255.805 368.72 254.38 372.204 252.714C372.219 252.698 372.251 252.698 372.266 252.683C373.051 252.314 373.805 251.913 374.575 251.529C374.698 251.467 374.821 251.405 374.944 251.344C375.56 251.021 376.175 250.697 376.791 250.359C378.33 249.512 379.838 248.62 381.331 247.666C381.747 247.419 382.147 247.158 382.562 246.881C383.917 245.988 385.256 245.034 386.548 244.064C386.78 243.895 387.026 243.726 387.257 243.541C401.676 232.596 412.259 217.367 417.49 200.037C422.721 182.707 422.331 164.166 416.376 147.072H416.376ZM384.425 239.801C383.917 240.201 383.394 240.586 382.87 240.94C382.362 241.325 381.855 241.694 381.331 242.032C380.885 242.356 380.439 242.664 379.976 242.956C379.592 243.218 379.207 243.464 378.822 243.71C377.545 244.51 376.253 245.28 374.944 246.019C374.805 246.096 374.667 246.173 374.528 246.25C373.943 246.573 373.359 246.881 372.774 247.188C372.697 247.235 372.604 247.265 372.528 247.312L372.435 247.358C371.696 247.742 370.943 248.112 370.188 248.466C367.278 249.867 364.281 251.081 361.215 252.098C360.815 252.237 360.415 252.375 360.015 252.498C354.501 254.252 348.815 255.408 343.054 255.946C340.53 256.177 337.975 256.3 335.405 256.3C328.343 256.314 321.309 255.393 314.489 253.56C310.989 252.647 307.558 251.484 304.224 250.082C303.87 249.943 303.516 249.789 303.177 249.651C302.993 249.574 302.823 249.497 302.638 249.405C301.191 248.774 299.76 248.081 298.36 247.358L297.683 247.004C295.974 246.111 294.296 245.157 292.665 244.141C292.065 243.772 291.465 243.387 290.88 242.987C289.033 241.771 287.232 240.463 285.477 239.093C284.292 238.2 283.154 237.246 282.045 236.261C281.461 235.769 280.891 235.23 280.337 234.722C278.155 232.707 276.089 230.569 274.15 228.319C273.504 227.581 272.873 226.842 272.272 226.072C272.136 225.92 272.007 225.761 271.887 225.595C261.887 212.977 255.873 197.665 254.61 181.614C253.347 165.564 256.894 149.5 264.798 135.473C272.701 121.446 284.604 110.091 298.987 102.856C313.371 95.6211 329.583 92.834 345.557 94.8504C361.53 96.8668 376.542 103.595 388.676 114.178C400.81 124.76 409.517 138.717 413.687 154.268C417.857 169.819 417.301 186.26 412.089 201.493C406.877 216.727 397.247 230.063 384.425 239.801V239.801Z" fill="#7C7C7C"/>
<path d="M394.576 328.086H276.176C272.41 328.083 268.8 326.584 266.138 323.92C263.476 321.256 261.98 317.644 261.98 313.878C261.98 310.112 263.476 306.5 266.138 303.836C268.8 301.172 272.41 299.673 276.176 299.67H394.576C396.443 299.668 398.292 300.035 400.017 300.748C401.742 301.461 403.31 302.508 404.63 303.827C405.951 305.147 406.998 306.714 407.713 308.438C408.428 310.163 408.796 312.011 408.796 313.878C408.796 315.745 408.428 317.593 407.713 319.318C406.998 321.042 405.951 322.609 404.63 323.929C403.31 325.248 401.742 326.295 400.017 327.008C398.292 327.721 396.443 328.087 394.576 328.086Z" fill="#7C7C7C"/>
<path d="M394.576 371.894H276.176C272.41 371.891 268.8 370.392 266.138 367.728C263.476 365.064 261.98 361.452 261.98 357.686C261.98 353.92 263.476 350.308 266.138 347.643C268.8 344.979 272.41 343.481 276.176 343.478H394.576C396.443 343.476 398.292 343.843 400.017 344.556C401.742 345.269 403.31 346.316 404.63 347.635C405.951 348.955 406.998 350.521 407.713 352.246C408.428 353.97 408.796 355.819 408.796 357.686C408.796 359.553 408.428 361.401 407.713 363.126C406.998 364.85 405.951 366.417 404.63 367.737C403.31 369.056 401.742 370.102 400.017 370.816C398.292 371.529 396.443 371.895 394.576 371.894Z" fill="#7C7C7C"/>
<path d="M727 485.494L1 486.494C0.734784 486.494 0.480429 486.389 0.292892 486.201C0.105356 486.014 0 485.76 0 485.494C0 485.229 0.105356 484.975 0.292892 484.787C0.480429 484.6 0.734784 484.494 1 484.494L727 483.494C727.265 483.494 727.52 483.6 727.707 483.787C727.895 483.975 728 484.229 728 484.494C728 484.76 727.895 485.014 727.707 485.201C727.52 485.389 727.265 485.494 727 485.494Z" fill="#3F3D56"/>
</g>
<defs>
<clipPath id="clip0_1_54">
<rect width="728" height="486.494" fill="white"/>
</clipPath>
</defs>
</svg>
