<svg width="728" height="487" viewBox="0 0 728 487" fill="none" xmlns="http://www.w3.org/2000/svg">
<g clip-path="url(#clip0_1_54)">
<path d="M656.972 85.9944H639.697C640.491 87.9421 640.794 90.0553 640.58 92.1479C640.365 94.2405 639.639 96.2482 638.466 97.9941C637.292 99.74 635.708 101.171 633.851 102.16C631.995 103.149 629.924 103.666 627.82 103.667H552C549.897 103.666 547.825 103.149 545.969 102.16C544.113 101.171 542.528 99.74 541.354 97.9941C540.181 96.2482 539.455 94.2405 539.241 92.1479C539.026 90.0553 539.329 87.9421 540.124 85.9943H523.988C516.827 85.9943 509.96 88.839 504.896 93.9024C499.833 98.9659 496.988 105.833 496.988 112.994V455.196C496.988 462.357 499.833 469.224 504.896 474.288C509.96 479.351 516.827 482.196 523.988 482.196H656.972C664.133 482.196 671.001 479.351 676.064 474.288C681.128 469.224 683.972 462.357 683.972 455.196V112.994C683.972 105.833 681.128 98.9659 676.064 93.9024C671.001 88.839 664.133 85.9944 656.972 85.9944Z" fill="#413288"/>
<path d="M657.128 217.046C653.753 207.352 648.305 198.511 641.163 191.14C634.021 183.768 625.356 178.043 615.774 174.364C606.192 170.685 595.923 169.14 585.682 169.838C575.442 170.535 565.477 173.458 556.482 178.402C547.488 183.347 539.68 190.194 533.603 198.466C527.526 206.738 523.327 216.236 521.299 226.298C519.27 236.359 519.46 246.742 521.857 256.723C524.253 266.703 528.798 276.041 535.174 284.085C535.807 284.883 536.466 285.681 537.138 286.453C537.188 286.504 537.226 286.555 537.277 286.605C538.928 288.508 540.683 290.318 542.534 292.027C543.016 292.471 543.522 292.927 544.029 293.357C544.991 294.219 545.98 295.042 547.006 295.828C547.411 296.144 547.804 296.461 548.222 296.765C549.843 297.994 551.528 299.134 553.264 300.223L553.34 300.261C553.833 300.566 554.341 300.87 554.847 301.161C555.759 301.706 556.697 302.225 557.634 302.719L558.229 303.023C559.598 303.733 560.991 304.404 562.423 305.025C562.714 305.151 563.031 305.278 563.322 305.405C563.347 305.417 563.36 305.417 563.385 305.43C564.057 305.709 564.728 305.975 565.412 306.228C567.659 307.086 569.951 307.822 572.278 308.432C578.216 310.015 584.336 310.816 590.482 310.814C592.724 310.814 594.941 310.712 597.133 310.497C602.14 310.035 607.083 309.037 611.878 307.52C611.89 307.52 611.904 307.508 611.916 307.508C614.945 306.543 617.903 305.37 620.771 303.998C620.783 303.986 620.809 303.986 620.822 303.973C621.467 303.669 622.089 303.34 622.722 303.023C622.823 302.972 622.924 302.922 623.026 302.871C623.532 302.605 624.039 302.339 624.546 302.06C625.813 301.364 627.054 300.629 628.283 299.843C628.625 299.641 628.954 299.425 629.296 299.197C629.778 298.881 630.259 298.551 630.728 298.209C631.348 297.779 631.969 297.335 632.577 296.879C632.767 296.74 632.97 296.601 633.16 296.449C645.028 287.44 653.739 274.906 658.045 260.642C662.351 246.377 662.029 231.116 657.127 217.046L657.128 217.046Z" fill="#787878"/>
<path d="M627.054 293.509C621.053 290.347 614.788 287.71 608.331 285.63L607.508 276.522L574.115 272.924L569.871 284.566L557.887 289.063C557.459 289.226 557.05 289.438 556.671 289.696H556.658C555.99 290.148 555.42 290.732 554.984 291.412C554.549 292.091 554.256 292.852 554.125 293.649C553.997 294.441 554.027 295.25 554.214 296.03L554.847 298.627C555.759 299.172 556.697 299.691 557.634 300.185L558.23 300.489C559.598 301.199 560.991 301.87 562.423 302.491C562.714 302.618 563.031 302.744 563.322 302.871C563.347 302.884 563.36 302.884 563.385 302.896C564.057 303.175 564.728 303.441 565.412 303.694C567.659 304.553 569.951 305.288 572.278 305.899C578.216 307.481 584.336 308.282 590.482 308.28C592.724 308.28 594.941 308.179 597.133 307.963C602.14 307.501 607.084 306.503 611.878 304.987C611.891 304.987 611.904 304.974 611.916 304.974C614.945 304.009 617.903 302.837 620.771 301.465C620.783 301.452 620.809 301.452 620.822 301.44C621.468 301.135 622.089 300.806 622.722 300.49C622.823 300.439 622.924 300.388 623.026 300.337C623.532 300.071 624.039 299.805 624.546 299.527C625.813 298.83 627.054 298.095 628.283 297.31C628.625 297.107 628.954 296.892 629.297 296.664C629.778 296.347 630.259 296.018 630.728 295.676C629.55 294.916 628.321 294.194 627.054 293.509Z" fill="#959595"/>
<path d="M564.386 299.121L562.296 289.684H556.836C556.781 289.685 556.726 289.689 556.671 289.696H556.658C554.696 289.862 552.807 290.516 551.161 291.597C550.044 292.309 549.052 293.199 548.222 294.232C549.843 295.46 551.528 296.601 553.264 297.69L553.34 297.728C553.834 298.032 554.341 298.336 554.847 298.627C555.759 299.172 556.697 299.692 557.634 300.186L558.23 300.49C559.598 301.199 560.991 301.87 562.423 302.491C562.714 302.618 563.031 302.744 563.322 302.871C563.347 302.884 563.36 302.884 563.385 302.896C564.057 303.175 564.728 303.441 565.412 303.695L564.386 299.121Z" fill="#959595"/>
<path d="M589.501 267.166C602.783 267.166 613.55 256.398 613.55 243.116C613.55 229.834 602.783 219.067 589.501 219.067C576.219 219.067 565.451 229.834 565.451 243.116C565.451 256.398 576.219 267.166 589.501 267.166Z" fill="#A0616A"/>
<path d="M573.354 231.402C575.844 234.349 580.057 235.18 583.943 235.521C591.836 236.213 603.314 235.09 611.027 233.309C611.578 238.645 610.077 244.398 613.22 248.788C614.693 243.474 615.55 238.008 615.773 232.498C616.007 230.134 615.699 227.748 614.87 225.521C614.427 224.405 613.68 223.436 612.714 222.724C611.748 222.012 610.601 221.584 609.404 221.491C611.196 220.132 613.295 219.235 615.515 218.879L607.879 215.041L609.84 213.028L596.015 212.182L600.019 209.638C593.992 208.81 587.895 208.618 581.828 209.064C579.011 209.272 576.066 209.668 573.783 211.3C571.5 212.933 570.181 216.177 571.599 218.573C569.824 218.865 568.154 219.604 566.746 220.722C565.337 221.839 564.237 223.298 563.551 224.959C562.682 227.6 562.472 230.413 562.94 233.154C563.46 237.551 564.482 241.874 565.985 246.038L573.354 231.402Z" fill="#2F2E41"/>
<path d="M657.128 217.046C653.753 207.352 648.305 198.511 641.163 191.14C634.021 183.768 625.356 178.043 615.774 174.364C606.192 170.685 595.923 169.14 585.682 169.838C575.442 170.535 565.477 173.458 556.482 178.402C547.488 183.347 539.68 190.194 533.603 198.466C527.526 206.738 523.327 216.236 521.299 226.298C519.27 236.359 519.46 246.742 521.857 256.723C524.253 266.703 528.798 276.041 535.174 284.085C535.807 284.883 536.466 285.681 537.138 286.453C537.188 286.504 537.226 286.555 537.277 286.605C538.928 288.508 540.683 290.318 542.534 292.027C543.016 292.471 543.522 292.927 544.029 293.357C544.991 294.219 545.98 295.042 547.006 295.828C547.411 296.144 547.804 296.461 548.222 296.765C549.843 297.994 551.528 299.134 553.264 300.223L553.34 300.261C553.833 300.566 554.341 300.87 554.847 301.161C555.759 301.706 556.697 302.225 557.634 302.719L558.229 303.023C559.598 303.733 560.991 304.404 562.423 305.025C562.714 305.151 563.031 305.278 563.322 305.405C563.347 305.417 563.36 305.417 563.385 305.43C564.057 305.709 564.728 305.975 565.412 306.228C567.659 307.086 569.951 307.822 572.278 308.432C578.216 310.015 584.336 310.816 590.482 310.814C592.724 310.814 594.941 310.712 597.133 310.497C602.14 310.035 607.083 309.037 611.878 307.52C611.89 307.52 611.904 307.508 611.916 307.508C614.945 306.543 617.903 305.37 620.771 303.998C620.783 303.986 620.809 303.986 620.822 303.973C621.467 303.669 622.089 303.34 622.722 303.023C622.823 302.972 622.924 302.922 623.026 302.871C623.532 302.605 624.039 302.339 624.546 302.06C625.813 301.364 627.054 300.629 628.283 299.843C628.625 299.641 628.954 299.425 629.296 299.197C629.778 298.881 630.259 298.551 630.728 298.209C631.348 297.779 631.969 297.335 632.577 296.879C632.767 296.74 632.97 296.601 633.16 296.449C645.028 287.44 653.739 274.906 658.045 260.642C662.351 246.377 662.029 231.116 657.127 217.046L657.128 217.046ZM630.829 293.37C630.411 293.699 629.981 294.016 629.549 294.308C629.131 294.624 628.714 294.928 628.283 295.207C627.915 295.473 627.548 295.726 627.168 295.967L627.054 296.043C626.775 296.233 626.497 296.41 626.218 296.588C625.166 297.246 624.102 297.88 623.026 298.488C622.912 298.551 622.797 298.615 622.684 298.678C622.202 298.944 621.721 299.197 621.24 299.451C621.176 299.489 621.1 299.514 621.037 299.552L620.961 299.59C620.353 299.907 619.732 300.211 619.112 300.502C616.716 301.656 614.249 302.654 611.726 303.492C611.396 303.606 611.067 303.72 610.738 303.821C606.2 305.264 601.52 306.216 596.778 306.659C594.7 306.849 592.597 306.95 590.482 306.95C584.669 306.962 578.88 306.204 573.267 304.695C570.386 303.943 567.562 302.986 564.817 301.832C564.677 301.769 564.525 301.718 564.386 301.655C564.234 301.592 564.095 301.541 563.956 301.477C563.803 301.414 563.664 301.351 563.512 301.275C562.321 300.755 561.143 300.185 559.991 299.59L559.433 299.299C558.027 298.564 556.646 297.779 555.303 296.942C554.911 296.702 554.505 296.448 554.125 296.182C554.024 296.119 553.935 296.056 553.834 295.992C552.934 295.397 552.035 294.776 551.161 294.13C550.566 293.687 549.97 293.243 549.388 292.787C548.412 292.053 547.474 291.267 546.563 290.456C546.081 290.051 545.613 289.608 545.157 289.19C543.36 287.531 541.66 285.772 540.064 283.92C539.532 283.312 539.013 282.704 538.518 282.07C538.406 281.945 538.3 281.814 538.202 281.678C529.971 271.291 525.02 258.689 523.981 245.478C522.942 232.267 525.861 219.045 532.366 207.5C538.872 195.954 548.668 186.608 560.507 180.653C572.346 174.698 585.69 172.404 598.838 174.063C611.985 175.723 624.341 181.261 634.328 189.971C644.316 198.682 651.483 210.169 654.915 222.969C658.347 235.769 657.889 249.301 653.6 261.84C649.31 274.378 641.383 285.355 630.829 293.37H630.829Z" fill="#33234A"/>
<path d="M639.31 366.14H541.857C538.758 366.137 535.786 364.903 533.595 362.711C531.405 360.518 530.174 357.545 530.174 354.445C530.174 351.346 531.405 348.373 533.595 346.18C535.786 343.987 538.758 342.754 541.857 342.751H639.31C642.412 342.751 645.386 343.983 647.579 346.176C649.772 348.369 651.005 351.344 651.005 354.445C651.005 357.547 649.772 360.521 647.579 362.714C645.386 364.907 642.412 366.14 639.31 366.14V366.14Z" fill="#281B3A"/>
<path d="M639.31 402.197H541.857C538.758 402.194 535.786 400.961 533.595 398.768C531.405 396.575 530.174 393.602 530.174 390.503C530.174 387.403 531.405 384.43 533.595 382.238C535.786 380.045 538.758 378.811 541.857 378.809H639.31C642.412 378.809 645.386 380.041 647.579 382.234C649.772 384.427 651.005 387.401 651.005 390.503C651.005 393.604 649.772 396.579 647.579 398.772C645.386 400.965 642.412 402.197 639.31 402.197V402.197Z" fill="#281B3A"/>
<path d="M223.768 87.9944H206.492C207.287 89.9421 207.59 92.0553 207.375 94.1479C207.161 96.2405 206.435 98.2482 205.261 99.9941C204.088 101.74 202.503 103.171 200.647 104.16C198.79 105.149 196.719 105.666 194.616 105.667H118.796C116.692 105.666 114.621 105.149 112.764 104.16C110.908 103.171 109.323 101.74 108.15 99.9941C106.977 98.2482 106.251 96.2405 106.036 94.1479C105.821 92.0553 106.125 89.9421 106.919 87.9943H90.7835C83.6227 87.9943 76.7551 90.839 71.6916 95.9024C66.6281 100.966 63.7835 107.833 63.7835 114.994V457.196C63.7835 464.357 66.6281 471.224 71.6916 476.288C76.7551 481.351 83.6227 484.196 90.7835 484.196H223.768C230.929 484.196 237.796 481.351 242.86 476.288C247.923 471.224 250.768 464.357 250.768 457.196V457.196V114.994C250.768 107.833 247.923 100.966 242.86 95.9024C237.796 90.839 230.929 87.9944 223.768 87.9944V87.9944Z" fill="#3C3C3C"/>
<path d="M223.923 219.046C220.549 209.352 215.1 200.512 207.958 193.14C200.816 185.768 192.152 180.043 182.57 176.364C172.988 172.685 162.718 171.14 152.478 171.838C142.237 172.535 132.272 175.458 123.278 180.402C114.283 185.347 106.475 192.194 100.398 200.466C94.3218 208.738 90.1227 218.236 88.094 228.298C86.0653 238.359 86.2558 248.742 88.6522 258.723C91.0486 268.703 95.5932 278.041 101.969 286.085C102.603 286.883 103.261 287.681 103.933 288.453C103.984 288.504 104.022 288.555 104.072 288.605C105.723 290.508 107.478 292.318 109.329 294.027C109.811 294.471 110.318 294.927 110.824 295.357C111.787 296.219 112.775 297.042 113.801 297.828C114.206 298.144 114.599 298.461 115.017 298.765C116.639 299.994 118.324 301.134 120.059 302.223L120.135 302.261C120.629 302.566 121.136 302.87 121.643 303.161C122.554 303.706 123.492 304.225 124.429 304.719L125.025 305.023C126.393 305.733 127.787 306.404 129.218 307.025C129.509 307.151 129.826 307.278 130.117 307.405C130.143 307.417 130.155 307.417 130.18 307.43C130.852 307.709 131.523 307.975 132.207 308.228C134.455 309.086 136.747 309.822 139.073 310.432C145.012 312.015 151.132 312.816 157.277 312.814C159.52 312.814 161.736 312.712 163.928 312.497C168.935 312.035 173.879 311.037 178.674 309.52C178.686 309.52 178.699 309.508 178.711 309.508C181.74 308.543 184.699 307.37 187.566 305.998C187.579 305.986 187.604 305.986 187.617 305.973C188.263 305.669 188.884 305.34 189.517 305.023C189.619 304.972 189.72 304.922 189.821 304.871C190.328 304.605 190.835 304.339 191.341 304.06C192.608 303.364 193.85 302.629 195.078 301.843C195.42 301.641 195.75 301.425 196.092 301.197C196.573 300.881 197.054 300.551 197.523 300.209C198.144 299.779 198.765 299.335 199.373 298.879C199.563 298.74 199.765 298.601 199.955 298.449C211.823 289.44 220.535 276.906 224.84 262.642C229.146 248.377 228.825 233.116 223.923 219.046Z" fill="#7C7C7C"/>
<path d="M206.106 368.14H108.653C105.551 368.14 102.577 366.907 100.384 364.714C98.1906 362.521 96.9585 359.547 96.9585 356.445C96.9585 353.344 98.1906 350.369 100.384 348.176C102.577 345.983 105.551 344.751 108.653 344.751H206.106C209.205 344.754 212.177 345.987 214.368 348.18C216.559 350.373 217.789 353.346 217.789 356.445C217.789 359.545 216.559 362.518 214.368 364.711C212.177 366.903 209.205 368.137 206.106 368.14V368.14Z" fill="#E4E4E4"/>
<path d="M206.106 404.197H108.653C107.116 404.199 105.594 403.897 104.174 403.31C102.754 402.723 101.464 401.862 100.377 400.776C99.2896 399.69 98.4273 398.4 97.8389 396.981C97.2506 395.561 96.9477 394.039 96.9477 392.503C96.9477 390.966 97.2506 389.445 97.8389 388.025C98.4273 386.606 99.2896 385.316 100.377 384.23C101.464 383.144 102.754 382.283 104.174 381.696C105.594 381.109 107.116 380.807 108.653 380.809H206.106C209.207 380.809 212.182 382.041 214.375 384.234C216.568 386.427 217.8 389.401 217.8 392.503C217.8 395.604 216.568 398.579 214.375 400.772C212.182 402.965 209.207 404.197 206.106 404.197Z" fill="#E4E4E4"/>
<path d="M132.41 258.755L136.509 272.954L188.889 272.029L188.43 246.014C188.066 225.422 173.513 207.662 152.921 208.025C132.33 208.388 119.237 225.797 119.6 246.389L122.591 273.199L131.131 273.048L132.41 258.755Z" fill="#2F2E41"/>
<path d="M155.262 268.683C168.242 268.683 178.764 258.161 178.764 245.182C178.764 232.203 168.242 221.681 155.262 221.681C142.283 221.681 131.761 232.203 131.761 245.182C131.761 258.161 142.283 268.683 155.262 268.683Z" fill="#FFB6B6"/>
<path d="M202.041 281.831L201.509 291.716C190.229 303.449 174.844 310.355 158.581 310.984C142.319 311.614 126.445 305.919 114.292 295.095C113.749 294.617 113.216 294.117 112.695 293.607C115.954 290.37 124.948 282.375 134.931 281.636L179.946 278.801C179.946 278.801 197.001 276.802 202.041 281.831Z" fill="#E4E4E4"/>
<path d="M180.989 228.68C180.958 226.88 180.395 225.13 179.37 223.65C179.262 223.498 179.153 223.357 179.045 223.216C178.174 222.105 177.058 221.21 175.784 220.601C174.51 219.992 173.113 219.686 171.701 219.707L154.81 220.011L137.929 220.305C135.511 220.353 133.21 221.358 131.531 223.098C129.851 224.839 128.929 227.174 128.967 229.592L132.987 237.685L135.3 242.334L135.681 242.117C150.291 233.905 156.265 233.796 175.601 241.433L175.992 241.585L177.524 237.663L181 228.767L180.989 228.68Z" fill="#2F2E41"/>
<path d="M207.374 288.481C206.016 290.219 204.79 290.188 203.258 291.774C199.391 295.804 193.22 299.255 188.397 302.134L187.344 283.254L202.041 281.831C204.487 283.417 206.357 285.749 207.374 288.481V288.481Z" fill="#E4E4E4"/>
<path d="M223.923 219.046C220.549 209.352 215.1 200.512 207.958 193.14C200.816 185.768 192.152 180.043 182.57 176.364C172.988 172.685 162.718 171.14 152.478 171.838C142.237 172.535 132.272 175.458 123.278 180.402C114.283 185.347 106.475 192.194 100.398 200.466C94.3218 208.738 90.1227 218.236 88.094 228.298C86.0653 238.359 86.2558 248.742 88.6522 258.723C91.0486 268.703 95.5932 278.041 101.969 286.085C102.603 286.883 103.261 287.681 103.933 288.453C103.984 288.504 104.022 288.555 104.072 288.605C105.723 290.508 107.478 292.318 109.329 294.027C109.811 294.471 110.318 294.927 110.824 295.357C111.787 296.219 112.775 297.042 113.801 297.828C114.206 298.144 114.599 298.461 115.017 298.765C116.639 299.994 118.324 301.134 120.059 302.223L120.135 302.261C120.629 302.566 121.136 302.87 121.643 303.161C122.554 303.706 123.492 304.225 124.429 304.719L125.025 305.023C126.393 305.733 127.787 306.404 129.218 307.025C129.509 307.151 129.826 307.278 130.117 307.405C130.143 307.417 130.155 307.417 130.18 307.43C130.852 307.709 131.523 307.975 132.207 308.228C134.455 309.086 136.747 309.822 139.073 310.432C145.012 312.015 151.132 312.816 157.277 312.814C159.52 312.814 161.736 312.712 163.928 312.497C168.935 312.035 173.879 311.037 178.674 309.52C178.686 309.52 178.699 309.508 178.711 309.508C181.74 308.543 184.699 307.37 187.566 305.998C187.579 305.986 187.604 305.986 187.617 305.973C188.263 305.669 188.884 305.34 189.517 305.023C189.619 304.972 189.72 304.922 189.821 304.871C190.328 304.605 190.835 304.339 191.341 304.06C192.608 303.364 193.85 302.629 195.078 301.843C195.42 301.641 195.75 301.425 196.092 301.197C196.573 300.881 197.054 300.551 197.523 300.209C198.144 299.779 198.765 299.335 199.373 298.879C199.563 298.74 199.765 298.601 199.955 298.449C211.823 289.44 220.535 276.906 224.84 262.642C229.146 248.377 228.825 233.116 223.923 219.046L223.923 219.046ZM197.625 295.37C197.207 295.699 196.776 296.016 196.345 296.308C195.927 296.624 195.509 296.928 195.078 297.207C194.711 297.473 194.343 297.726 193.963 297.967L193.85 298.043C193.571 298.233 193.292 298.41 193.013 298.588C191.962 299.246 190.898 299.88 189.821 300.488C189.707 300.551 189.593 300.615 189.479 300.678C188.998 300.944 188.517 301.197 188.035 301.451C187.972 301.489 187.896 301.514 187.832 301.552L187.756 301.59C187.148 301.907 186.527 302.211 185.907 302.502C183.512 303.656 181.045 304.654 178.521 305.492C178.192 305.606 177.863 305.72 177.534 305.821C172.995 307.264 168.315 308.216 163.574 308.659C161.496 308.849 159.393 308.95 157.277 308.95C151.464 308.962 145.676 308.204 140.062 306.695C137.181 305.943 134.357 304.986 131.613 303.832C131.473 303.769 131.321 303.718 131.181 303.655C131.03 303.592 130.89 303.541 130.751 303.477C130.599 303.414 130.46 303.351 130.307 303.275C129.117 302.755 127.938 302.185 126.786 301.59L126.229 301.299C124.822 300.564 123.442 299.779 122.099 298.942C121.706 298.702 121.301 298.448 120.92 298.182C120.819 298.119 120.73 298.056 120.629 297.992C119.73 297.397 118.83 296.776 117.956 296.13C117.361 295.687 116.766 295.243 116.183 294.787C115.207 294.053 114.27 293.267 113.358 292.456C112.877 292.051 112.408 291.608 111.952 291.19C110.156 289.531 108.455 287.772 106.859 285.92C106.327 285.312 105.808 284.704 105.314 284.07C105.201 283.945 105.096 283.814 104.997 283.678C96.7662 273.291 91.8155 260.689 90.7762 247.478C89.7369 234.267 92.6561 221.045 99.1615 209.5C105.667 197.954 115.464 188.608 127.302 182.653C139.141 176.698 152.485 174.404 165.633 176.063C178.781 177.723 191.136 183.261 201.124 191.971C211.111 200.682 218.278 212.169 221.71 224.969C225.143 237.769 224.685 251.301 220.395 263.84C216.105 276.378 208.178 287.355 197.625 295.37V295.37Z" fill="#E4E4E4"/>
<path d="M432.834 277.358C433.825 277.557 434.848 277.536 435.831 277.298C436.813 277.059 437.731 276.608 438.52 275.975C439.31 275.343 439.95 274.546 440.398 273.64C440.846 272.733 441.089 271.739 441.111 270.729L493.366 221.546L481.608 212.167L433.852 263.585C432.152 263.661 430.538 264.357 429.317 265.543C428.095 266.729 427.351 268.322 427.226 270.019C427.1 271.717 427.602 273.401 428.636 274.754C429.669 276.106 431.163 277.033 432.834 277.358H432.834Z" fill="#FFB7B7"/>
<path d="M485.961 229.496L475.795 217.582C475.506 217.243 475.293 216.845 475.171 216.417C475.049 215.988 475.021 215.538 475.089 215.098C475.157 214.657 475.319 214.237 475.564 213.864C475.808 213.492 476.131 213.177 476.508 212.941L489.743 204.656C491.486 203.185 493.741 202.465 496.013 202.655C498.286 202.844 500.39 203.927 501.865 205.666C503.34 207.405 504.066 209.658 503.882 211.931C503.698 214.204 502.62 216.311 500.885 217.791L490.657 229.521C490.364 229.857 490.002 230.126 489.596 230.309C489.189 230.492 488.749 230.586 488.303 230.584C487.857 230.581 487.417 230.483 487.013 230.295C486.609 230.107 486.25 229.835 485.961 229.496V229.496Z" fill="#BC79FF"/>
<path d="M458.624 472.188L445.848 472.187L439.77 422.908L458.626 422.909L458.624 472.188Z" fill="#FFB7B7"/>
<path d="M461.882 484.572L420.687 484.571V484.05C420.687 479.797 422.376 475.719 425.383 472.712C428.39 469.705 432.468 468.016 436.721 468.015H436.722L461.883 468.016L461.882 484.572Z" fill="#2F2E41"/>
<path d="M560.751 472.188L547.975 472.187L541.897 422.908L560.753 422.909L560.751 472.188Z" fill="#FFB7B7"/>
<path d="M564.009 484.572L522.813 484.571V484.05C522.814 479.797 524.503 475.719 527.51 472.712C530.517 469.705 534.595 468.016 538.848 468.015H538.849L564.01 468.016L564.009 484.572Z" fill="#2F2E41"/>
<path d="M526.385 255.618L539.263 208.037L522.556 198.646H499.236L490.166 208.35C490.166 208.35 475.012 218.894 478.68 230.575L484.597 257.183L475.547 299.442L429.951 362.674L419.158 424.785L461.646 435.923L507.59 345.457L529.865 445.627L571.306 443.543L557.026 322.087C557.026 322.087 552.956 285.087 531.618 261.985L526.385 255.618Z" fill="#2F2E41"/>
<path d="M552.981 297.717C553.699 297.005 554.252 296.144 554.602 295.196C554.952 294.247 555.089 293.233 555.005 292.226C554.92 291.218 554.616 290.242 554.113 289.364C553.61 288.487 552.921 287.731 552.095 287.149L542.102 219.738L527.761 224.266L542.117 289.191C541.231 290.644 540.909 292.372 541.213 294.047C541.516 295.722 542.423 297.228 543.762 298.279C545.101 299.33 546.779 299.853 548.478 299.749C550.177 299.646 551.779 298.922 552.981 297.717V297.717Z" fill="#FFB7B7"/>
<path d="M544.572 230.317L529.013 232.111C528.571 232.162 528.122 232.117 527.699 231.979C527.275 231.841 526.886 231.614 526.558 231.312C526.23 231.01 525.971 230.641 525.799 230.23C525.626 229.819 525.545 229.376 525.559 228.931L526.063 213.325C525.814 211.058 526.474 208.785 527.899 207.005C529.323 205.224 531.396 204.081 533.662 203.826C535.928 203.572 538.203 204.227 539.987 205.647C541.771 207.067 542.919 209.137 543.179 211.402L547.212 226.434C547.327 226.865 547.349 227.315 547.274 227.754C547.2 228.194 547.032 228.612 546.781 228.98C546.531 229.349 546.204 229.659 545.822 229.89C545.441 230.12 545.015 230.266 544.572 230.317Z" fill="#BC79FF"/>
<path d="M484.817 185.115V165.068C484.822 157.946 487.654 151.117 492.691 146.083C497.729 141.048 504.559 138.22 511.681 138.22C518.803 138.22 525.633 141.048 530.671 146.083C535.708 151.117 538.541 157.946 538.545 165.068V185.115C538.544 186.072 538.163 186.989 537.487 187.666C536.81 188.342 535.893 188.723 534.936 188.724H488.426C487.469 188.723 486.552 188.342 485.875 187.666C485.199 186.989 484.818 186.072 484.817 185.115Z" fill="#2F2E41"/>
<path d="M506.161 188.257C517.039 188.257 525.857 179.439 525.857 168.562C525.857 157.684 517.039 148.866 506.161 148.866C495.283 148.866 486.465 157.684 486.465 168.562C486.465 179.439 495.283 188.257 506.161 188.257Z" fill="#FFB7B7"/>
<path d="M478.462 166.672C478.468 161.038 480.709 155.636 484.693 151.652C488.677 147.668 494.078 145.428 499.713 145.421H503.722C509.356 145.428 514.758 147.668 518.742 151.652C522.725 155.636 524.966 161.038 524.973 166.672V167.073H516.499L513.609 158.98L513.031 167.073H508.652L507.194 162.989L506.902 167.073H478.462L478.462 166.672Z" fill="#2F2E41"/>
<path d="M504.223 190.978C503.825 190.44 503.587 189.8 503.537 189.132C503.487 188.464 503.627 187.796 503.94 187.204C508.189 179.122 514.138 164.189 506.242 154.98L505.674 154.318H528.598V188.736L507.773 192.41C507.563 192.447 507.349 192.466 507.135 192.466C506.566 192.466 506.006 192.331 505.5 192.073C504.993 191.814 504.556 191.439 504.223 190.978V190.978Z" fill="#2F2E41"/>
<path d="M426.872 485.362H265.303C256.209 485.351 247.489 481.734 241.058 475.303C234.628 468.872 231.01 460.153 231 451.058V35.3037C231.01 26.209 234.628 17.4897 241.058 11.0588C247.489 4.62779 256.209 1.01033 265.303 1H287.139L286.296 3.06641C285.424 5.20504 285.091 7.52541 285.326 9.82312C285.562 12.1208 286.359 14.3253 287.647 16.2424C288.936 18.1595 290.676 19.7304 292.714 20.8166C294.752 21.9028 297.027 22.471 299.336 22.4712H391.453C393.762 22.471 396.037 21.9027 398.075 20.8166C400.113 19.7304 401.854 18.1596 403.142 16.2425C404.43 14.3254 405.227 12.1209 405.463 9.82324C405.699 7.52553 405.366 5.20513 404.494 3.06641L403.651 1H426.872C435.966 1.01031 444.686 4.62776 451.117 11.0587C457.548 17.4897 461.165 26.209 461.175 35.3037V451.058C461.165 460.153 457.547 468.872 451.117 475.303C444.686 481.734 435.966 485.351 426.872 485.362Z" fill="white"/>
<path d="M426.872 485.362H265.303C256.209 485.351 247.489 481.734 241.058 475.303C234.628 468.872 231.01 460.153 231 451.058V35.3037C231.01 26.209 234.628 17.4897 241.058 11.0588C247.489 4.62779 256.209 1.01033 265.303 1H287.139L286.296 3.06641C285.424 5.20504 285.091 7.52541 285.326 9.82312C285.562 12.1208 286.359 14.3253 287.647 16.2424C288.936 18.1595 290.676 19.7304 292.714 20.8166C294.752 21.9028 297.027 22.471 299.336 22.4712H391.453C393.762 22.471 396.037 21.9027 398.075 20.8166C400.113 19.7304 401.854 18.1596 403.142 16.2425C404.43 14.3254 405.227 12.1209 405.463 9.82324C405.699 7.52553 405.366 5.20513 404.494 3.06641L403.651 1H426.872C435.966 1.01031 444.686 4.62776 451.117 11.0587C457.548 17.4897 461.165 26.209 461.175 35.3037V451.058C461.165 460.153 457.547 468.872 451.117 475.303C444.686 481.734 435.966 485.351 426.872 485.362ZM265.303 4C257.004 4.00947 249.047 7.31059 243.179 13.1791C237.31 19.0477 234.009 27.0044 234 35.3037V451.058C234.009 459.357 237.31 467.314 243.179 473.183C249.047 479.051 257.004 482.352 265.303 482.362H426.872C435.171 482.352 443.128 479.051 448.996 473.183C454.865 467.314 458.166 459.357 458.175 451.058V35.3037C458.166 27.0044 454.865 19.0476 448.996 13.1791C443.128 7.31054 435.171 4.00945 426.872 4H407.967C408.639 6.52992 408.72 9.18028 408.205 11.7466C407.69 14.3129 406.592 16.7265 404.996 18.8013C403.4 20.8761 401.349 22.5565 399.001 23.713C396.653 24.8694 394.07 25.4709 391.453 25.4712H299.336C296.719 25.4702 294.137 24.8682 291.79 23.7115C289.442 22.5548 287.391 20.8744 285.796 18.7997C284.2 16.7251 283.102 14.3117 282.587 11.7457C282.072 9.17971 282.153 6.52967 282.824 3.99997L265.303 4Z" fill="#3F3D56"/>
<path d="M431.586 148.072C427.486 136.294 420.867 125.553 412.19 116.597C403.512 107.641 392.986 100.685 381.344 96.2153C369.702 91.7453 357.226 89.8686 344.784 90.716C332.343 91.5634 320.236 95.1145 309.308 101.122C298.38 107.129 288.893 115.448 281.511 125.498C274.128 135.548 269.026 147.087 266.561 159.312C264.097 171.536 264.328 184.151 267.24 196.277C270.151 208.402 275.673 219.747 283.419 229.519C284.188 230.489 284.989 231.459 285.804 232.398C285.866 232.459 285.912 232.521 285.973 232.582C287.98 234.894 290.112 237.093 292.361 239.169C292.946 239.708 293.561 240.262 294.177 240.785C295.347 241.832 296.547 242.832 297.794 243.787C300.228 245.705 302.766 247.488 305.397 249.127L305.489 249.173C307.197 250.235 308.936 251.22 310.707 252.159L311.43 252.529C313.092 253.39 314.785 254.206 316.524 254.96C316.878 255.114 317.263 255.268 317.617 255.422C317.648 255.437 317.663 255.437 317.694 255.453C321.208 256.914 324.818 258.133 328.498 259.1C335.713 261.023 343.148 261.996 350.614 261.994C353.339 261.994 356.032 261.871 358.695 261.609C364.778 261.048 370.784 259.835 376.61 257.992C376.625 257.992 376.64 257.977 376.655 257.977C380.335 256.805 383.93 255.38 387.414 253.714C387.429 253.698 387.46 253.698 387.475 253.683C388.26 253.314 389.015 252.913 389.784 252.529C389.907 252.467 390.031 252.405 390.154 252.344C390.769 252.021 391.385 251.697 392 251.359C393.539 250.512 395.048 249.62 396.541 248.666C396.956 248.419 397.356 248.158 397.772 247.881C399.126 246.988 400.465 246.034 401.758 245.064C401.989 244.895 402.235 244.726 402.467 244.541C416.885 233.596 427.468 218.367 432.699 201.037C437.93 183.707 437.541 165.166 431.586 148.072H431.586Z" fill="white"/>
<path d="M378.909 211.596C386.005 211.596 391.758 205.843 391.758 198.746C391.758 191.65 386.005 185.897 378.909 185.897C371.812 185.897 366.059 191.65 366.059 198.746C366.059 205.843 371.812 211.596 378.909 211.596Z" fill="#2F2E41"/>
<path d="M382.489 186.251C384.713 186.251 386.899 186.828 388.833 187.926C390.767 189.024 392.383 190.605 393.523 192.514C394.663 194.424 395.288 196.597 395.336 198.82C395.385 201.044 394.856 203.242 393.801 205.2C394.915 203.806 395.726 202.195 396.183 200.47C396.64 198.746 396.732 196.945 396.455 195.182C396.177 193.42 395.536 191.735 394.571 190.234C393.606 188.733 392.339 187.449 390.851 186.465C389.363 185.481 387.686 184.817 385.928 184.517C384.169 184.217 382.367 184.286 380.636 184.72C378.906 185.155 377.285 185.945 375.877 187.04C374.468 188.136 373.304 189.513 372.457 191.083C373.658 189.575 375.184 188.357 376.921 187.52C378.658 186.684 380.562 186.25 382.49 186.251H382.489Z" fill="#2F2E41"/>
<path d="M354.896 198.719C375.743 198.719 392.643 181.819 392.643 160.971C392.643 140.124 375.743 123.224 354.896 123.224C334.049 123.224 317.149 140.124 317.149 160.971C317.149 181.819 334.049 198.719 354.896 198.719Z" fill="#2F2E41"/>
<path d="M325.27 137.551C331.775 130.236 340.866 125.735 350.627 124.996C360.387 124.258 370.053 127.34 377.583 133.593C377.276 133.299 376.968 133.003 376.649 132.719C369.191 126.046 359.389 122.609 349.398 123.161C339.406 123.713 330.043 128.21 323.366 135.664C316.689 143.117 313.244 152.917 313.79 162.909C314.335 172.901 318.826 182.267 326.275 188.949C326.347 189.013 326.419 189.077 326.491 189.141C326.811 189.426 327.14 189.695 327.468 189.967C320.376 183.221 316.183 173.983 315.773 164.203C315.364 154.424 318.769 144.867 325.272 137.551L325.27 137.551Z" fill="#2F2E41"/>
<path d="M354.576 198.398C368.003 198.398 378.887 187.514 378.887 174.087C378.887 160.661 368.003 149.776 354.576 149.776C341.149 149.776 330.265 160.661 330.265 174.087C330.265 187.514 341.149 198.398 354.576 198.398Z" fill="#A0616A"/>
<path d="M398.08 237.43V245.587C396.587 246.542 395.078 247.434 393.539 248.281C392.924 248.619 392.308 248.943 391.693 249.266C391.57 249.327 391.446 249.389 391.323 249.45C390.554 249.835 389.799 250.235 389.015 250.605C389 250.62 388.968 250.62 388.953 250.635C385.469 252.302 381.874 253.727 378.194 254.899C378.179 254.899 378.164 254.914 378.149 254.914C372.323 256.757 366.317 257.969 360.234 258.531C357.571 258.793 354.878 258.916 352.153 258.916C344.687 258.918 337.252 257.945 330.038 256.022C326.357 255.055 322.747 253.836 319.233 252.375C319.202 252.359 319.187 252.359 319.156 252.344C318.802 252.19 318.417 252.036 318.063 251.882C316.324 251.128 314.631 250.312 312.969 249.45L312.246 249.081C310.475 248.142 308.736 247.157 307.028 246.095L306.936 246.049C304.305 244.41 301.767 242.627 299.333 240.709C298.086 239.754 296.886 238.754 295.716 237.707C295.1 237.184 294.485 236.63 293.9 236.091C291.651 234.015 289.519 231.815 287.512 229.504C287.778 227.901 288.17 226.321 288.682 224.779L288.697 224.764C288.79 224.501 288.897 224.244 289.021 223.994C289.106 223.773 289.203 223.557 289.313 223.348C292.068 218.192 297.055 216.914 303.242 216.637C306.736 216.483 310.598 216.653 314.678 216.607C316.832 216.591 319.063 216.514 321.295 216.314C335.378 215.037 332.823 206.726 333.454 202.247C334.085 197.907 337.994 201.662 338.256 201.908L338.271 201.924C346.24 205.653 355.057 207.199 363.82 206.402C365.328 206.218 366.836 206.11 368.345 206.064C372.315 206.018 371.453 207.157 370.084 208.096C369.419 208.533 368.725 208.924 368.006 209.265C368.006 209.265 367.375 213.113 366.729 218.869C366.113 224.379 385.521 226.287 389.323 227.488H389.338C391.508 228.286 393.444 229.613 394.971 231.35C396.497 233.086 397.566 235.176 398.08 237.43V237.43Z" fill="#BC79FF"/>
<path d="M333.783 143.698V168.016H339.413L346.577 160.339L345.619 168.016H370.505L368.966 160.339L372.044 168.016H376.012V143.698H333.783Z" fill="#2F2E41"/>
<path d="M329.945 172.488C331.004 172.488 331.864 170.913 331.864 168.97C331.864 167.027 331.004 165.452 329.945 165.452C328.885 165.452 328.025 167.027 328.025 168.97C328.025 170.913 328.885 172.488 329.945 172.488Z" fill="#A0616A"/>
<path d="M379.209 172.488C380.269 172.488 381.128 170.913 381.128 168.97C381.128 167.027 380.269 165.452 379.209 165.452C378.149 165.452 377.29 167.027 377.29 168.97C377.29 170.913 378.149 172.488 379.209 172.488Z" fill="#A0616A"/>
<path d="M431.586 148.072C427.486 136.294 420.867 125.553 412.19 116.597C403.512 107.641 392.986 100.685 381.344 96.2153C369.702 91.7453 357.226 89.8686 344.784 90.716C332.343 91.5634 320.236 95.1145 309.308 101.122C298.38 107.129 288.893 115.448 281.511 125.498C274.128 135.548 269.026 147.087 266.561 159.312C264.097 171.536 264.328 184.151 267.24 196.277C270.151 208.402 275.673 219.747 283.419 229.519C284.188 230.489 284.989 231.459 285.804 232.398C285.866 232.459 285.912 232.521 285.973 232.582C287.98 234.894 290.112 237.093 292.361 239.169C292.946 239.708 293.561 240.262 294.177 240.785C295.347 241.832 296.547 242.832 297.794 243.787C300.228 245.705 302.766 247.488 305.397 249.127L305.489 249.173C307.197 250.235 308.936 251.22 310.707 252.159L311.43 252.529C313.092 253.39 314.785 254.206 316.524 254.96C316.878 255.114 317.263 255.268 317.617 255.422C317.648 255.437 317.663 255.437 317.694 255.453C321.208 256.914 324.818 258.133 328.498 259.1C335.713 261.023 343.148 261.996 350.614 261.994C353.339 261.994 356.032 261.871 358.695 261.609C364.778 261.048 370.784 259.835 376.61 257.992C376.625 257.992 376.64 257.977 376.655 257.977C380.335 256.805 383.93 255.38 387.414 253.714C387.429 253.698 387.46 253.698 387.475 253.683C388.26 253.314 389.015 252.913 389.784 252.529C389.907 252.467 390.031 252.405 390.154 252.344C390.769 252.021 391.385 251.697 392 251.359C393.539 250.512 395.048 249.62 396.541 248.666C396.956 248.419 397.356 248.158 397.772 247.881C399.126 246.988 400.465 246.034 401.758 245.064C401.989 244.895 402.235 244.726 402.467 244.541C416.885 233.596 427.468 218.367 432.699 201.037C437.93 183.707 437.541 165.166 431.586 148.072H431.586ZM399.634 240.801C399.126 241.201 398.603 241.586 398.08 241.94C397.572 242.325 397.064 242.694 396.541 243.032C396.094 243.356 395.648 243.664 395.186 243.956C394.801 244.218 394.416 244.464 394.032 244.71C392.755 245.51 391.462 246.28 390.154 247.019C390.015 247.096 389.876 247.173 389.737 247.25C389.153 247.573 388.568 247.881 387.983 248.188C387.906 248.235 387.814 248.265 387.737 248.312L387.645 248.358C386.906 248.742 386.152 249.112 385.398 249.466C382.487 250.867 379.49 252.081 376.425 253.098C376.025 253.237 375.624 253.375 375.225 253.498C369.711 255.252 364.025 256.408 358.264 256.946C355.74 257.177 353.184 257.3 350.614 257.3C343.552 257.314 336.519 256.393 329.699 254.56C326.198 253.647 322.768 252.484 319.433 251.082C319.079 250.943 318.725 250.789 318.386 250.651C318.202 250.574 318.032 250.497 317.847 250.405C316.401 249.774 314.97 249.081 313.569 248.358L312.892 248.004C311.184 247.111 309.506 246.157 307.874 245.141C307.275 244.772 306.674 244.387 306.089 243.987C304.242 242.771 302.442 241.463 300.687 240.093C299.502 239.2 298.363 238.246 297.255 237.261C296.67 236.769 296.1 236.23 295.547 235.722C293.364 233.707 291.299 231.569 289.359 229.319C288.713 228.581 288.082 227.842 287.482 227.072C287.345 226.92 287.217 226.761 287.097 226.595C277.097 213.977 271.082 198.665 269.819 182.614C268.557 166.564 272.103 150.5 280.007 136.473C287.911 122.446 299.813 111.091 314.197 103.856C328.58 96.6211 344.792 93.834 360.766 95.8504C376.74 97.8668 391.751 104.595 403.885 115.178C416.019 125.76 424.727 139.717 428.897 155.268C433.067 170.819 432.51 187.26 427.299 202.493C422.087 217.727 412.456 231.063 399.634 240.801V240.801Z" fill="#7C7C7C"/>
<path d="M409.785 329.086H291.386C287.62 329.083 284.009 327.584 281.347 324.92C278.685 322.256 277.19 318.644 277.19 314.878C277.19 311.112 278.685 307.5 281.347 304.836C284.009 302.172 287.62 300.673 291.386 300.67H409.785C411.652 300.668 413.501 301.035 415.226 301.748C416.951 302.461 418.519 303.508 419.84 304.827C421.16 306.147 422.208 307.714 422.923 309.438C423.637 311.163 424.005 313.011 424.005 314.878C424.005 316.745 423.637 318.593 422.923 320.318C422.208 322.042 421.16 323.609 419.84 324.929C418.519 326.248 416.951 327.295 415.226 328.008C413.501 328.721 411.652 329.087 409.785 329.086Z" fill="#7C7C7C"/>
<path d="M409.785 372.894H291.386C287.62 372.891 284.009 371.392 281.347 368.728C278.685 366.064 277.19 362.452 277.19 358.686C277.19 354.92 278.685 351.308 281.347 348.643C284.009 345.979 287.62 344.481 291.386 344.478H409.785C411.652 344.476 413.501 344.843 415.226 345.556C416.951 346.269 418.519 347.316 419.84 348.635C421.16 349.955 422.208 351.521 422.923 353.246C423.637 354.97 424.005 356.819 424.005 358.686C424.005 360.553 423.637 362.401 422.923 364.126C422.208 365.85 421.16 367.417 419.84 368.737C418.519 370.056 416.951 371.102 415.226 371.816C413.501 372.529 411.652 372.895 409.785 372.894Z" fill="#7C7C7C"/>
<path d="M727 485.494L1 486.494C0.734784 486.494 0.480429 486.389 0.292892 486.201C0.105356 486.014 0 485.76 0 485.494C0 485.229 0.105356 484.975 0.292892 484.787C0.480429 484.6 0.734784 484.494 1 484.494L727 483.494C727.265 483.494 727.52 483.6 727.707 483.787C727.895 483.975 728 484.229 728 484.494C728 484.76 727.895 485.014 727.707 485.201C727.52 485.389 727.265 485.494 727 485.494Z" fill="#3F3D56"/>
</g>
<defs>
<clipPath id="clip0_1_54">
<rect width="728" height="486.494" fill="white"/>
</clipPath>
</defs>
</svg>
